<svg width="16" height="16" viewBox="0 0 16 16" fill="currentColor" xmlns="http://www.w3.org/2000/svg">
<path d="M14.7891 7.89062L8.35311 1.45937C8.30677 1.41294 8.25173 1.3761 8.19114 1.35097C8.13054 1.32583 8.06559 1.3129 7.99999 1.3129C7.93439 1.3129 7.86943 1.32583 7.80884 1.35097C7.74825 1.3761 7.6932 1.41294 7.64686 1.45937L1.21093 7.89062C1.02343 8.07812 0.917175 8.33281 0.917175 8.59843C0.917175 9.14999 1.36561 9.59843 1.91718 9.59843H2.5953V14.1875C2.5953 14.4641 2.81874 14.6875 3.0953 14.6875H6.99999V11.1875H8.74999V14.6875H12.9047C13.1812 14.6875 13.4047 14.4641 13.4047 14.1875V9.59843H14.0828C14.3484 9.59843 14.6031 9.49374 14.7906 9.30468C15.1797 8.91406 15.1797 8.28124 14.7891 7.89062Z" fill="white"/>
</svg>
