<svg width="20" height="19" viewBox="0 0 20 19" fill="none" xmlns="http://www.w3.org/2000/svg">
<path d="M16.9231 4.99965H3.07692C1.92987 4.99965 1 5.92952 1 7.07657V15.3843C1 16.5313 1.92987 17.4612 3.07692 17.4612H16.9231C18.0701 17.4612 19 16.5313 19 15.3843V7.07657C19 5.92952 18.0701 4.99965 16.9231 4.99965Z" stroke="white" stroke-width="1.53846" stroke-linejoin="round"/>
<path d="M16.7223 4.99965V3.70157C16.7222 3.3832 16.6518 3.06877 16.5162 2.78073C16.3806 2.49268 16.1831 2.23812 15.9378 2.03519C15.6925 1.83227 15.4054 1.686 15.097 1.6068C14.7886 1.52761 14.4666 1.51745 14.1538 1.57705L2.75846 3.522C2.2636 3.61631 1.81716 3.88035 1.49615 4.26859C1.17513 4.65682 0.999659 5.14492 1 5.64868V7.76888" stroke="white" stroke-width="1.53846" stroke-linejoin="round"/>
<path d="M14.8462 12.615C14.5723 12.615 14.3046 12.5338 14.0769 12.3817C13.8492 12.2295 13.6717 12.0133 13.5669 11.7603C13.4621 11.5073 13.4347 11.2289 13.4882 10.9603C13.5416 10.6917 13.6735 10.445 13.8671 10.2514C14.0607 10.0577 14.3074 9.92584 14.576 9.87242C14.8446 9.81899 15.123 9.84641 15.376 9.95121C15.629 10.056 15.8453 10.2335 15.9974 10.4612C16.1496 10.6889 16.2308 10.9566 16.2308 11.2304C16.2308 11.5976 16.0849 11.9498 15.8252 12.2095C15.5656 12.4692 15.2134 12.615 14.8462 12.615Z" fill="white"/>
</svg>
